<?xml version="1.0" encoding="UTF-8" standalone="no"?>
<svg
   xmlns:svg="http://www.w3.org/2000/svg"
   xmlns="http://www.w3.org/2000/svg"
   xml:space="preserve"
   viewBox="0 0 52.93 52.93"
   id="Capa_1"
   version="1.1"
   width="800px"
   height="800px">         
<g
   transform="matrix(0.65254149,0,0,0.65254149,9.1955588,9.1954798)"
   style="fill:#000000"
   id="g6">
	<circle
   id="circle2"
   r="4.4619999"
   cy="25.59"
   cx="26.465"
   style="fill:#000000" />
	<path
   id="path4"
   d="M 52.791,32.256 C 52.604,31.222 51.446,30.137 50.464,29.764 L 47.819,28.76 c -0.982,-0.373 -1.699,-1.237 -1.651,-1.935 0.029,-0.417 0.046,-0.838 0.046,-1.263 0,-0.284 -0.008,-0.566 -0.021,-0.846 -0.023,-0.467 0.719,-1.193 1.677,-1.624 l 2.39,-1.074 c 0.958,-0.432 2.121,-1.565 2.194,-2.613 0.064,-0.929 -0.047,-2.196 -0.648,-3.765 -0.699,-1.831 -1.834,-3.005 -2.779,-3.718 -0.839,-0.633 -2.423,-0.595 -3.381,-0.163 l -2.08,0.936 c -0.958,0.431 -2.274,0.119 -3.025,-0.616 -0.177,-0.174 -0.356,-0.343 -0.54,-0.509 -0.778,-0.705 -1.17,-2 -0.796,-2.983 L 40.024,6.425 C 40.397,5.443 40.392,3.831 39.702,3.04 39.067,2.312 38.059,1.461 36.487,0.759 34.723,-0.029 33.141,-0.052 32.004,0.12 30.965,0.278 29.883,1.451 29.51,2.432 L 28.564,4.923 C 28.191,5.905 27.766,6.698 27.615,6.694 27.523,6.69 27.432,6.689 27.341,6.689 c -0.622,0 -1.238,0.03 -1.846,0.09 -1.016,0.1 -2.176,-0.507 -2.607,-1.465 l -1.124,-2.5 C 21.333,1.855 20.226,0.604 19.175,0.587 18.259,0.571 16.968,0.796 15.239,1.615 13.365,2.504 12.268,3.357 11.628,4.052 10.916,4.823 11.074,6.468 11.506,7.426 l 1.481,3.296 c 0.431,0.958 0.256,2.266 -0.324,2.979 -0.579,0.714 -1.786,1.033 -2.768,0.661 L 6.297,12.997 c -0.982,-0.373 -2.65,-0.476 -3.406,0.256 -0.658,0.637 -1.412,1.709 -2.056,3.51 -0.696,1.954 -0.867,3.332 -0.83,4.276 0.042,1.05 1.317,2.101 2.3,2.474 l 4.392,1.667 c 0.982,0.373 1.782,1.244 1.839,1.941 0.055,0.699 -0.635,1.61 -1.593,2.042 l -4.382,1.97 c -0.958,0.431 -2.211,1.539 -2.227,2.589 -0.015,0.916 0.21,2.208 1.028,3.935 0.89,1.874 1.742,2.971 2.437,3.611 0.773,0.713 2.417,0.554 3.375,0.123 l 4.698,-2.112 c 0.958,-0.432 2.076,-0.412 2.525,0.013 0.449,0.425 0.535,1.541 0.162,2.524 L 12.743,46.6 c -0.373,0.982 -0.476,2.65 0.256,3.404 0.638,0.659 1.709,1.414 3.51,2.057 1.954,0.697 3.333,0.868 4.277,0.831 1.05,-0.042 2.1,-1.318 2.473,-2.3 l 1.693,-4.46 c 0.373,-0.982 1.058,-1.742 1.531,-1.719 0.284,0.014 0.57,0.021 0.857,0.021 0.134,0 0.266,-10e-4 0.398,-0.005 0.219,-0.007 0.747,0.762 1.178,1.721 l 1.963,4.364 c 0.431,0.958 1.605,1.986 2.653,2.038 1.121,0.056 2.669,-0.062 4.43,-0.734 1.685,-0.645 2.659,-1.604 3.219,-2.442 0.584,-0.873 0.388,-2.517 -0.044,-3.475 l -1.606,-3.573 c -0.431,-0.958 -0.169,-2.191 0.527,-2.824 0.693,-0.633 2,-0.9 2.981,-0.526 l 3.432,1.303 c 0.982,0.373 2.64,0.489 3.478,-0.145 0.738,-0.56 1.591,-1.49 2.281,-3.034 0.827,-1.854 0.785,-3.605 0.561,-4.846 z M 26.465,39.79 c -7.844,0 -14.201,-6.357 -14.201,-14.2 0,-7.843 6.357,-14.2 14.201,-14.2 7.842,0 14.2,6.357 14.2,14.2 10e-4,7.843 -6.358,14.2 -14.2,14.2 z"
   style="fill:#000000" />
</g>
</svg>