<?xml version="1.0" encoding="UTF-8" standalone="no"?>
<!-- Uploaded to: SVG Repo, www.svgrepo.com, Generator: SVG Repo Mixer Tools -->

<svg
   xmlns:dc="http://purl.org/dc/elements/1.1/"
   xmlns:cc="http://creativecommons.org/ns#"
   xmlns:rdf="http://www.w3.org/1999/02/22-rdf-syntax-ns#"
   xmlns:svg="http://www.w3.org/2000/svg"
   xmlns="http://www.w3.org/2000/svg"
   xmlns:sodipodi="http://sodipodi.sourceforge.net/DTD/sodipodi-0.dtd"
   xmlns:inkscape="http://www.inkscape.org/namespaces/inkscape"
   width="800px"
   height="800px"
   viewBox="0 0 24 24"
   fill="none"
   version="1.1"
   id="svg6"
   sodipodi:docname="btn_download.svg"
   inkscape:version="0.92.3 (2405546, 2018-03-11)">
  <metadata
     id="metadata12">
    <rdf:RDF>
      <cc:Work
         rdf:about="">
        <dc:format>image/svg+xml</dc:format>
        <dc:type
           rdf:resource="http://purl.org/dc/dcmitype/StillImage" />
      </cc:Work>
    </rdf:RDF>
  </metadata>
  <defs
     id="defs10" />
  <sodipodi:namedview
     pagecolor="#ffffff"
     bordercolor="#666666"
     borderopacity="1"
     objecttolerance="10"
     gridtolerance="10"
     guidetolerance="10"
     inkscape:pageopacity="0"
     inkscape:pageshadow="2"
     inkscape:window-width="703"
     inkscape:window-height="480"
     id="namedview8"
     showgrid="false"
     inkscape:zoom="0.295"
     inkscape:cx="400"
     inkscape:cy="400"
     inkscape:window-x="0"
     inkscape:window-y="0"
     inkscape:window-maximized="0"
     inkscape:current-layer="svg6" />
  <path
     d="M 12.472676,15.848104 C 12.351326,15.980812 12.179847,16.056389 12,16.056389 c -0.179847,0 -0.351326,-0.07558 -0.472676,-0.208285 L 8.1114007,12.111956 c -0.2386864,-0.26106 -0.2205479,-0.666187 0.040513,-0.904873 0.2610692,-0.238687 0.6661871,-0.220582 0.9048735,0.04048 l 2.3027308,2.518633 V 4.3142112 c 0,-0.3537256 0.286765,-0.6404824 0.640482,-0.6404824 0.353717,0 0.640482,0.2867568 0.640482,0.6404824 v 9.4519828 l 2.302748,-2.518633 c 0.238687,-0.26106 0.643813,-0.279165 0.904874,-0.04048 0.26106,0.238686 0.279165,0.643813 0.04048,0.904873 z"
     id="path2"
     inkscape:connector-curvature="0"
     style="fill:#1c274c;stroke-width:0.85397655" />
  <path
     d="m 4.9546936,14.56193 c 0,-0.353717 -0.2867483,-0.640483 -0.6404824,-0.640483 -0.3537256,0 -0.6404824,0.286766 -0.6404824,0.640483 v 0.04688 c -1.71e-5,1.167898 -3.42e-5,2.109237 0.099505,2.849634 0.1033483,0.768664 0.3244342,1.415808 0.8384598,1.929816 0.5140256,0.514094 1.1612287,0.735189 1.9299016,0.83852 0.740372,0.09949 1.6817274,0.09949 2.8496172,0.09949 h 5.2176006 c 1.167898,0 2.109237,0 2.849634,-0.09949 0.768664,-0.103331 1.415808,-0.324426 1.929902,-0.83852 0.514008,-0.514008 0.735103,-1.161152 0.838434,-1.929816 0.09949,-0.740397 0.09949,-1.681736 0.09949,-2.849634 v -0.04688 c 0,-0.353717 -0.286765,-0.640483 -0.640482,-0.640483 -0.353717,0 -0.640483,0.286766 -0.640483,0.640483 0,1.225798 -0.0014,2.080713 -0.08805,2.725807 -0.08429,0.626648 -0.238344,0.958418 -0.474725,1.194799 -0.236381,0.236381 -0.568151,0.390438 -1.194799,0.474725 -0.645094,0.08668 -1.50001,0.08805 -2.725807,0.08805 H 9.4380704 c -1.2258065,0 -2.0807395,-0.0014 -2.7257906,-0.08805 C 6.0856574,18.872974 5.7538192,18.718917 5.5174726,18.482536 5.2811261,18.246155 5.127026,17.914385 5.0427813,17.287737 4.9560514,16.642643 4.9546936,15.787728 4.9546936,14.56193 Z"
     id="path4"
     inkscape:connector-curvature="0"
     style="fill:#1c274c;stroke-width:0.85397655" />
</svg>
