<?xml version="1.0" encoding="UTF-8" standalone="no"?>
<!-- Uploaded to: SVG Repo, www.svgrepo.com, Generator: SVG Repo Mixer Tools -->

<svg
   xmlns:dc="http://purl.org/dc/elements/1.1/"
   xmlns:cc="http://creativecommons.org/ns#"
   xmlns:rdf="http://www.w3.org/1999/02/22-rdf-syntax-ns#"
   xmlns:svg="http://www.w3.org/2000/svg"
   xmlns="http://www.w3.org/2000/svg"
   xmlns:sodipodi="http://sodipodi.sourceforge.net/DTD/sodipodi-0.dtd"
   xmlns:inkscape="http://www.inkscape.org/namespaces/inkscape"
   fill="#000000"
   version="1.1"
   id="icon"
   width="800px"
   height="800px"
   viewBox="0 0 32 32"
   xml:space="preserve"
   sodipodi:docname="btn_recording.svg"
   inkscape:version="0.92.3 (2405546, 2018-03-11)"><metadata
   id="metadata13"><rdf:RDF><cc:Work
       rdf:about=""><dc:format>image/svg+xml</dc:format><dc:type
         rdf:resource="http://purl.org/dc/dcmitype/StillImage" /></cc:Work></rdf:RDF></metadata><defs
   id="defs11" /><sodipodi:namedview
   pagecolor="#ffffff"
   bordercolor="#666666"
   borderopacity="1"
   objecttolerance="10"
   gridtolerance="10"
   guidetolerance="10"
   inkscape:pageopacity="0"
   inkscape:pageshadow="2"
   inkscape:window-width="1240"
   inkscape:window-height="667"
   id="namedview9"
   showgrid="false"
   inkscape:zoom="0.295"
   inkscape:cx="-200"
   inkscape:cy="400"
   inkscape:window-x="0"
   inkscape:window-y="0"
   inkscape:window-maximized="0"
   inkscape:current-layer="icon" />
<style
   type="text/css"
   id="style2">
	.st0{fill:none;}
	.st1{opacity:0;}
</style>
<rect
   id="_Transparent_Rectangle_"
   class="st0"
   width="32"
   height="32" />
<path
   d="m 16,6.2033899 c -5.388136,0 -9.7966101,4.4084741 -9.7966101,9.7966101 0,5.388135 4.4084741,9.79661 9.7966101,9.79661 5.388135,0 9.79661,-4.408475 9.79661,-9.79661 0,-5.388136 -4.408475,-9.7966101 -9.79661,-9.7966101 z m 0,13.9951571 c -2.309201,0 -4.198547,-1.889346 -4.198547,-4.198547 0,-2.309201 1.889346,-4.198547 4.198547,-4.198547 2.309201,0 4.198547,1.889346 4.198547,4.198547 0,2.309201 -1.889346,4.198547 -4.198547,4.198547 z"
   id="path5"
   inkscape:connector-curvature="0"
   style="stroke-width:0.69975787" />
<path
   id="inner-path"
   class="st1"
   d="M16,10c-3.3,0-6,2.7-6,6s2.7,6,6,6s6-2.7,6-6S19.3,10,16,10z" />
</svg>