<?xml version="1.0" encoding="UTF-8" standalone="no"?>
<svg
   xmlns:svg="http://www.w3.org/2000/svg"
   xmlns="http://www.w3.org/2000/svg"
   fill="#000000"
   version="1.1"
   id="Layer_1"
   width="800px"
   height="800px"
   viewBox="0 0 24 24"
   enable-background="new 0 0 24 24"
   xml:space="preserve"><defs
   id="defs33" />

<g
   style="fill:#000000"
   id="g8"
   transform="matrix(0.75141243,0,0,0.75141243,5.3830508,2.9830508)">
		<g
   style="fill:#000000"
   id="g6">
			<path
   style="fill:#000000"
   id="path4"
   d="M 5,21 H 1 C 0.4,21 0,20.6 0,20 v -4 c 0,-0.6 0.4,-1 1,-1 0.6,0 1,0.4 1,1 v 3 h 3 c 0.6,0 1,0.4 1,1 0,0.6 -0.4,1 -1,1 z" />
		</g>
	</g><g
   style="fill:#000000"
   id="g14"
   transform="matrix(0.75141243,0,0,0.75141243,1.3630508,2.9830508)">
		<g
   style="fill:#000000"
   id="g12">
			<path
   style="fill:#000000"
   id="path10"
   d="m 23,21 h -4 c -0.6,0 -1,-0.4 -1,-1 0,-0.6 0.4,-1 1,-1 h 3 v -3 c 0,-0.6 0.4,-1 1,-1 0.6,0 1,0.4 1,1 v 4 c 0,0.6 -0.4,1 -1,1 z" />
		</g>
	</g><g
   style="fill:#000000"
   id="g20"
   transform="matrix(0.75141243,0,0,0.75141243,1.3630508,2.9830508)">
		<g
   style="fill:#000000"
   id="g18">
			<path
   style="fill:#000000"
   id="path16"
   d="M 23,9 C 22.4,9 22,8.6 22,8 V 5 H 19 C 18.4,5 18,4.6 18,4 18,3.4 18.4,3 19,3 h 4 c 0.6,0 1,0.4 1,1 v 4 c 0,0.6 -0.4,1 -1,1 z" />
		</g>
	</g><g
   style="fill:#000000"
   id="g26"
   transform="matrix(0.75141243,0,0,0.75141243,5.3830508,2.9830508)">
		<g
   style="fill:#000000"
   id="g24">
			<path
   style="fill:#000000"
   id="path22"
   d="M 1,9 C 0.4,9 0,8.6 0,8 V 4 C 0,3.4 0.4,3 1,3 H 5 C 5.6,3 6,3.4 6,4 6,4.6 5.6,5 5,5 H 2 V 8 C 2,8.6 1.6,9 1,9 Z" />
		</g>
	</g>
</svg>