<?xml version="1.0" encoding="UTF-8" standalone="no"?>
<svg

   xmlns:svg="http://www.w3.org/2000/svg"
   xmlns="http://www.w3.org/2000/svg"
   fill="#000000"
   width="800px"
   height="800px"
   viewBox="0 0 36 36"
   version="1.1"
   preserveAspectRatio="xMidYMid meet"
   id="svg10">
  <path
     style="stroke-width:0.75423729"
     id="path2"
     d="m 29.313559,12.003814 a 3.8239831,3.8239831 0 0 0 0.07542,-5.4078818 3.8164407,3.8164407 0 0 0 -5.355085,0.090509 L 20.09678,10.570763 a 1.6065254,1.6065254 0 0 1 -2.262712,0 l -0.505339,-0.505339 -1.04839,1.086101 8.568136,8.568136 1.071017,-1.071017 -0.505339,-0.505339 a 1.6065254,1.6065254 0 0 1 0,-2.262712 z m -4.947796,2.828389 a 3.0697458,3.0697458 0 0 0 -0.814577,1.448136 l -3.831525,-3.831525 a 3.0697458,3.0697458 0 0 0 1.448136,-0.814577 l 3.891864,-3.8994065 a 2.3305932,2.3305932 0 0 1 3.280932,-0.075424 2.3305932,2.3305932 0 0 1 -0.07542,3.2809325 z" />
  <path
     style="stroke-width:0.75423729"
     id="path4"
     d="M 9.929661,28.189746 A 1.5093136,1.5093136 0 1 1 7.7951695,26.055254 L 18.437458,15.412966 17.366441,14.349492 6.7241525,24.99178 A 3.0169492,3.0169492 0 0 0 6.2112712,28.612119 L 5.095,29.72839 a 0.75423729,0.75423729 0 0 0 0,1.093644 0.75423729,0.75423729 0 0 0 1.0710169,0 L 7.2445763,29.735932 A 2.9641525,2.9641525 0 0 0 8.8209322,30.188475 3.0622034,3.0622034 0 0 0 10.993136,29.28339 L 21.635424,18.610932 20.571949,17.547458 Z" />
  <rect
     style="fill-opacity:0;stroke-width:0.75423729"
     id="rect6"
     x="4.4237289"
     y="4.4237289"
     width="27.152542"
     height="27.152542" />
</svg>
