<?xml version="1.0" encoding="UTF-8" standalone="no"?>
<!-- Uploaded to: SVG Repo, www.svgrepo.com, Generator: SVG Repo Mixer Tools -->

<svg
   xmlns:dc="http://purl.org/dc/elements/1.1/"
   xmlns:cc="http://creativecommons.org/ns#"
   xmlns:rdf="http://www.w3.org/1999/02/22-rdf-syntax-ns#"
   xmlns:svg="http://www.w3.org/2000/svg"
   xmlns="http://www.w3.org/2000/svg"
   xmlns:sodipodi="http://sodipodi.sourceforge.net/DTD/sodipodi-0.dtd"
   xmlns:inkscape="http://www.inkscape.org/namespaces/inkscape"
   width="800px"
   height="800px"
   viewBox="0 0 24 24"
   fill="none"
   version="1.1"
   id="svg4"
   sodipodi:docname="btn_pause.svg"
   inkscape:version="0.92.3 (2405546, 2018-03-11)">
  <metadata
     id="metadata10">
    <rdf:RDF>
      <cc:Work
         rdf:about="">
        <dc:format>image/svg+xml</dc:format>
        <dc:type
           rdf:resource="http://purl.org/dc/dcmitype/StillImage" />
      </cc:Work>
    </rdf:RDF>
  </metadata>
  <defs
     id="defs8" />
  <sodipodi:namedview
     pagecolor="#ffffff"
     bordercolor="#666666"
     borderopacity="1"
     objecttolerance="10"
     gridtolerance="10"
     guidetolerance="10"
     inkscape:pageopacity="0"
     inkscape:pageshadow="2"
     inkscape:window-width="1484"
     inkscape:window-height="925"
     id="namedview6"
     showgrid="false"
     inkscape:zoom="0.295"
     inkscape:cx="-200"
     inkscape:cy="400"
     inkscape:window-x="0"
     inkscape:window-y="0"
     inkscape:window-maximized="0"
     inkscape:current-layer="svg4" />
  <path
     d="M 7.4475182,6.5526029 C 7.3389831,6.765678 7.3389831,7.045339 7.3389831,7.6053269 v 8.7893461 c 0,0.559322 0,0.838983 0.1085351,1.052724 a 0.99878935,0.99878935 0 0 0 0.4368038,0.436138 c 0.2130751,0.109201 0.4927361,0.109201 1.052724,0.109201 h 0.1331719 c 0.5593221,0 0.8389831,0 1.0527241,-0.108535 a 0.99878935,0.99878935 0 0 0 0.436804,-0.436804 c 0.108535,-0.213075 0.108535,-0.492736 0.108535,-1.052724 V 7.6053269 c 0,-0.5593221 0,-0.8389831 -0.108535,-1.052724 A 0.99878935,0.99878935 0 0 0 10.122942,6.115799 C 9.9098668,6.0072639 9.6302058,6.0072639 9.0702179,6.0072639 H 8.937046 c -0.559322,0 -0.838983,0 -1.052724,0.1085351 A 0.99878935,0.99878935 0 0 0 7.4475182,6.5526029 Z m 5.9927358,0 C 13.331719,6.765678 13.331719,7.045339 13.331719,7.6053269 v 8.7893461 c 0,0.559322 0,0.838983 0.109201,1.052724 a 0.99878935,0.99878935 0 0 0 0.436138,0.436138 c 0.213075,0.109201 0.492736,0.109201 1.052724,0.109201 h 0.133172 c 0.559322,0 0.838983,0 1.052724,-0.108535 a 0.99878935,0.99878935 0 0 0 0.436138,-0.436804 c 0.109201,-0.213075 0.109201,-0.492736 0.109201,-1.052724 V 7.6053269 c 0,-0.5593221 0,-0.8389831 -0.108535,-1.052724 A 0.99878935,0.99878935 0 0 0 16.115678,6.115799 C 15.902603,6.0072639 15.622942,6.0072639 15.062954,6.0072639 h -0.133172 c -0.559322,0 -0.838983,0 -1.052724,0.1085351 A 0.99878935,0.99878935 0 0 0 13.44092,6.5526029 Z"
     id="path2"
     style="clip-rule:evenodd;fill:#000000;fill-rule:evenodd;stroke-width:0.66585958"
     inkscape:connector-curvature="0" />
</svg>
