<?xml version="1.0" encoding="UTF-8" standalone="no"?>
<svg
   xmlns:svg="http://www.w3.org/2000/svg"
   xmlns="http://www.w3.org/2000/svg"
   id="svg4"
   version="1.1"
   fill="none"
   viewBox="0 0 24 24"
   height="800px"
   width="800px">
  <defs
     id="defs8" />
  <path
     style="fill:#000000"
     id="path2"
     fill="#000000"
     d="M20.69 12.29C20.65 12.38 20.6 12.46 20.53 12.53L18.03 15.03C17.88 15.18 17.69 15.25 17.5 15.25C17.31 15.25 17.12 15.18 16.97 15.03C16.68 14.74 16.68 14.26 16.97 13.97L18.19 12.75H12.75V18.19L13.97 16.97C14.26 16.68 14.74 16.68 15.03 16.97C15.32 17.26 15.32 17.74 15.03 18.03L12.53 20.53C12.46 20.6 12.38 20.65 12.29 20.69C12.2 20.73 12.1 20.75 12 20.75C11.9 20.75 11.8 20.73 11.71 20.69C11.62 20.65 11.54 20.6 11.47 20.53L8.97 18.03C8.68 17.74 8.68 17.26 8.97 16.97C9.26 16.68 9.74 16.68 10.03 16.97L11.25 18.19V12.75H5.81L7.03 13.97C7.32 14.26 7.32 14.74 7.03 15.03C6.88 15.18 6.69 15.25 6.5 15.25C6.31 15.25 6.12 15.18 5.97 15.03L3.47 12.53C3.4 12.46 3.35 12.38 3.31 12.29C3.23 12.11 3.23 11.9 3.31 11.72C3.35 11.63 3.4 11.55 3.47 11.48L5.97 8.98C6.26 8.69 6.74 8.69 7.03 8.98C7.32 9.27 7.32 9.75 7.03 10.04L5.81 11.26H11.25V5.81L10.03 7.03C9.74 7.32 9.26 7.32 8.97 7.03C8.68 6.74 8.68 6.26 8.97 5.97L11.47 3.47C11.54 3.4 11.62 3.35 11.71 3.31C11.89 3.23 12.1 3.23 12.28 3.31C12.37 3.35 12.45 3.4 12.52 3.47L15.02 5.97C15.31 6.26 15.31 6.74 15.02 7.03C14.87 7.18 14.68 7.25 14.49 7.25C14.3 7.25 14.11 7.18 13.96 7.03L12.74 5.81V11.25H18.18L16.96 10.03C16.67 9.74 16.67 9.26 16.96 8.97C17.25 8.68 17.73 8.68 18.02 8.97L20.52 11.47C20.59 11.54 20.64 11.62 20.68 11.71C20.76 11.89 20.76 12.1 20.68 12.28L20.69 12.29Z" />
</svg>
