<?xml version="1.0" encoding="UTF-8" standalone="no"?>
<svg
   xmlns:dc="http://purl.org/dc/elements/1.1/"
   xmlns:cc="http://creativecommons.org/ns#"
   xmlns:rdf="http://www.w3.org/1999/02/22-rdf-syntax-ns#"
   xmlns:svg="http://www.w3.org/2000/svg"
   xmlns="http://www.w3.org/2000/svg"
   id="svg4"
   version="1.1"
   fill="none"
   viewBox="0 0 24 24"
   height="800px"
   width="800px">
  <metadata
     id="metadata10">
    <rdf:RDF>
      <cc:Work
         rdf:about="">
        <dc:format>image/svg+xml</dc:format>
        <dc:type
           rdf:resource="http://purl.org/dc/dcmitype/StillImage" />
        <dc:title></dc:title>
      </cc:Work>
    </rdf:RDF>
  </metadata>
  <defs
     id="defs8" />
  <path
     style="clip-rule:evenodd;fill:#000000;fill-rule:evenodd;stroke-width:0.96642172"
     id="path2"
     d="m 16.407796,4.5784465 c 1.13226,-1.1322402 2.158999,-0.7906621 2.949594,-0.035955 l 0.165844,0.1658095 c 0.844618,0.8445978 0.934507,1.7994246 -0.197751,2.9316548 L 17.646518,9.3189318 8.1287415,18.836762 c -0.1238661,0.123803 -0.279047,0.211646 -0.4489704,0.254171 L 5.6118097,19.625899 C 5.2824726,19.708239 4.9340868,19.611694 4.694048,19.371731 4.4540079,19.131673 4.3631694,18.78464 4.4398495,18.45392 L 4.9568393,16.224166 C 4.999324,16.054273 5.0871908,15.899062 5.211037,15.775167 L 14.784402,6.2018419 Z M 18.49404,5.405851 c -0.377386,-0.3774067 -0.989325,-0.3774066 -1.366712,3e-7 l -0.952989,0.9530075 1.503173,1.5619211 0.982367,-0.9823869 c 0.377389,-0.3774072 0.377389,-0.9893163 0,-1.3667328 z M 16.975666,8.6225946 15.472493,7.0606735 6.1198709,16.413335 5.6090202,18.456739 7.6524025,17.945886 Z" />
</svg>
