<?xml version="1.0" encoding="UTF-8" standalone="no"?>
<svg
   xmlns:svg="http://www.w3.org/2000/svg"
   xmlns="http://www.w3.org/2000/svg"
   id="svg13"
   version="1.1"
   fill="none"
   viewBox="0 0 24 24"
   height="800px"
   width="800px">
  <g
     transform="matrix(0.6580285,0,0,0.6580285,4.1003846,4.1036333)"
     style="fill:#000000"
     id="g6"
     clip-path="url(#clip0_429_11071)">
    <path
       id="path4"
       transform="scale(0.03)"
       d="m 400,58.333984 a 41.670833,41.670833 0 1 0 0,83.332036 c 143.16853,0 258.33398,115.16717 258.33398,258.33398 0,143.1687 -115.16528,258.33398 -258.33398,258.33398 -143.16719,0 -258.33398,-115.16551 -258.33398,-258.33398 0,-57.35485 18.56665,-110.08935 50,-152.82812 v 36.1621 a 41.670833,41.670833 0 1 0 83.33398,0 V 150 A 41.670833,41.670833 0 0 0 233.33398,108.33398 H 100 a 41.670833,41.670833 0 1 0 0,83.33204 h 29.21094 C 84.784087,249.39943 58.333984,321.77549 58.333984,400 58.333984,588.20487 211.79652,741.66602 400,741.66602 588.20463,741.66602 741.66602,588.20463 741.66602,400 741.66602,211.79681 588.2048,58.333984 400,58.333984 Z"
       style="color:#000000;font-style:normal;font-variant:normal;font-weight:normal;font-stretch:normal;font-size:medium;line-height:normal;font-family:sans-serif;font-variant-ligatures:normal;font-variant-position:normal;font-variant-caps:normal;font-variant-numeric:normal;font-variant-alternates:normal;font-feature-settings:normal;text-indent:0;text-align:start;text-decoration:none;text-decoration-line:none;text-decoration-style:solid;text-decoration-color:#000000;letter-spacing:normal;word-spacing:normal;text-transform:none;writing-mode:lr-tb;direction:ltr;text-orientation:mixed;dominant-baseline:auto;baseline-shift:baseline;text-anchor:start;white-space:normal;shape-padding:0;clip-rule:nonzero;display:inline;overflow:visible;visibility:visible;opacity:1;isolation:auto;mix-blend-mode:normal;color-interpolation:sRGB;color-interpolation-filters:linearRGB;solid-color:#000000;solid-opacity:1;vector-effect:none;fill:#000000;fill-opacity:1;fill-rule:nonzero;stroke:none;stroke-width:83.33333588;stroke-linecap:round;stroke-linejoin:round;stroke-miterlimit:4;stroke-dasharray:none;stroke-dashoffset:0;stroke-opacity:1;color-rendering:auto;image-rendering:auto;shape-rendering:auto;text-rendering:auto;enable-background:accumulate" />
  </g>
  <defs
     id="defs11">
    <clipPath
       id="clip0_429_11071">
      <rect
         id="rect8"
         fill="white"
         height="24"
         width="24" />
    </clipPath>
  </defs>
</svg>
