<?xml version="1.0" encoding="UTF-8" standalone="no"?>
<svg
   xmlns:dc="http://purl.org/dc/elements/1.1/"
   xmlns:cc="http://creativecommons.org/ns#"
   xmlns:rdf="http://www.w3.org/1999/02/22-rdf-syntax-ns#"
   xmlns:svg="http://www.w3.org/2000/svg"
   xmlns="http://www.w3.org/2000/svg"
   xmlns:sodipodi="http://sodipodi.sourceforge.net/DTD/sodipodi-0.dtd"
   xmlns:inkscape="http://www.inkscape.org/namespaces/inkscape"
   width="32"
   height="32"
   viewBox="0 0 32 32"
   version="1.1"
   preserveAspectRatio="xMidYMid meet"
   id="svg10"
   sodipodi:docname="cur_pick2.svg"
   inkscape:version="0.92.3 (2405546, 2018-03-11)"
   style="fill:#000000">
  <metadata
     id="metadata10">
    <rdf:RDF>
      <cc:Work
         rdf:about="">
        <dc:format>image/svg+xml</dc:format>
        <dc:type
           rdf:resource="http://purl.org/dc/dcmitype/StillImage" />
        <dc:title></dc:title>
      </cc:Work>
    </rdf:RDF>
  </metadata>
  <defs
     id="defs8" />
  <sodipodi:namedview
     pagecolor="#ffffff"
     bordercolor="#666666"
     borderopacity="1"
     objecttolerance="10"
     gridtolerance="10"
     guidetolerance="10"
     inkscape:pageopacity="0"
     inkscape:pageshadow="2"
     inkscape:window-width="2047"
     inkscape:window-height="1224"
     id="namedview6"
     showgrid="false"
     inkscape:zoom="53.400704"
     inkscape:cx="8.283875"
     inkscape:cy="11.624185"
     inkscape:window-x="485"
     inkscape:window-y="508"
     inkscape:window-maximized="0"
     inkscape:current-layer="svg10" />
  <g
     id="g820"
     transform="matrix(1.220695,0,0,1.220695,-5.6204284,36.163644)">
    <path
       inkscape:connector-curvature="0"
       d="m 28.024938,-21.758468 a 3.8239831,3.8239831 0 0 0 0.07542,-5.407882 3.8164407,3.8164407 0 0 0 -5.355085,0.09051 l -3.937114,3.884322 a 1.6065254,1.6065254 0 0 1 -2.262712,0 l -0.505339,-0.505339 -1.04839,1.086101 8.568136,8.568136 1.071017,-1.071017 -0.505339,-0.505339 a 1.6065254,1.6065254 0 0 1 0,-2.262712 z m -4.947796,2.828389 a 3.0697458,3.0697458 0 0 0 -0.814577,1.448136 l -3.831525,-3.831525 a 3.0697458,3.0697458 0 0 0 1.448136,-0.814577 l 3.891864,-3.899406 a 2.3305932,2.3305932 0 0 1 3.280932,-0.07542 2.3305932,2.3305932 0 0 1 -0.07542,3.280932 z"
       id="path2"
       style="stroke-width:0.75423729" />
    <path
       inkscape:connector-curvature="0"
       d="M 9.9603422,-6.6157056 A 1.5093136,1.5093136 0 1 1 7.825851,-8.7501976 L 18.468139,-19.392485 17.397122,-20.455959 6.754834,-9.8136714 a 3.0169492,3.0169492 0 0 0 -0.5128813,3.6203388 l -1.1162712,1.116271 a 0.75423729,0.75423729 0 0 0 0,1.093644 0.75423729,0.75423729 0 0 0 1.0710169,0 l 1.0785594,-1.086102 a 2.9641525,2.9641525 0 0 0 1.5763554,0.452543 3.0622034,3.0622034 0 0 0 2.1722038,-0.905085 L 21.666105,-16.194519 20.60263,-17.257993 Z"
       id="path4"
       style="stroke-width:0.75423729" />
    <rect
       height="27.152542"
       width="27.152542"
       y="-29.338552"
       x="3.1351082"
       id="rect6"
       style="fill-opacity:0;stroke-width:0.75423729" />
  </g>
  <path
     style="fill:#d3bc5f;stroke:none;stroke-width:0.01324153"
     d="m 19.214931,12.479506 -2.327596,-2.327624 0.110199,-0.03008 c 0.527236,-0.1438973 1.054421,-0.4312901 1.489841,-0.8121806 0.06455,-0.05647 1.215699,-1.2051116 2.558099,-2.5525371 1.3424,-1.3474254 2.498224,-2.4979796 2.568496,-2.556787 0.936373,-0.7836041 2.240003,-0.89144 3.286792,-0.2718825 0.123079,0.072846 0.336346,0.2308835 0.441693,0.327308 0.254339,0.2327965 0.540217,0.6808693 0.667514,1.0462292 0.328372,0.9424729 0.147838,1.982879 -0.477189,2.7500112 -0.04588,0.056309 -1.231224,1.2494286 -2.634101,2.6513768 -2.723599,2.721795 -2.651664,2.646707 -2.873428,2.999361 -0.182243,0.289807 -0.335482,0.627349 -0.425167,0.936526 -0.0248,0.08549 -0.04789,0.158235 -0.05132,0.161664 -0.0034,0.0034 -1.053653,-1.041196 -2.333831,-2.321389 z"
     id="path817"
     inkscape:connector-curvature="0" />
  <path
     style="fill:#d7e3f4;stroke:none;stroke-width:0.01872635"
     d="M 5.0265799,28.606395 C 4.4298729,28.534011 3.9064322,28.177107 3.6210671,27.648059 3.4668622,27.362173 3.4094151,27.123873 3.410052,26.772734 c 3.843e-4,-0.211864 0.00842,-0.283133 0.049624,-0.440069 0.057855,-0.220363 0.1803869,-0.475801 0.3099108,-0.646059 0.05093,-0.06695 2.9961606,-3.024767 6.5449582,-6.572934 l 6.452359,-6.451212 1.296801,1.296833 1.296804,1.296833 -6.479315,6.476958 c -4.2801929,4.278635 -6.5174512,6.502304 -6.5916742,6.551633 -0.390431,0.259482 -0.8373232,0.373308 -1.2629399,0.321678 z"
     id="path819"
     inkscape:connector-curvature="0" />
</svg>
