<?xml version="1.0" encoding="UTF-8" standalone="no"?>
<svg
   xmlns:dc="http://purl.org/dc/elements/1.1/"
   xmlns:cc="http://creativecommons.org/ns#"
   xmlns:rdf="http://www.w3.org/1999/02/22-rdf-syntax-ns#"
   xmlns:svg="http://www.w3.org/2000/svg"
   xmlns="http://www.w3.org/2000/svg"
   xmlns:sodipodi="http://sodipodi.sourceforge.net/DTD/sodipodi-0.dtd"
   xmlns:inkscape="http://www.inkscape.org/namespaces/inkscape"
   id="svg4"
   version="1.1"
   viewBox="0 0 32 32"
   height="32"
   width="32"
   sodipodi:docname="cur_draw2.svg"
   inkscape:export-filename="D:\home\projects\00.docs\231018_symsim\v1\images\ui\cur_draw.png"
   inkscape:export-xdpi="5.8305197"
   inkscape:export-ydpi="5.8305197"
   style="fill:none"
   inkscape:version="0.92.3 (2405546, 2018-03-11)">
  <sodipodi:namedview
     pagecolor="#ffffff"
     bordercolor="#666666"
     borderopacity="1"
     objecttolerance="10"
     gridtolerance="10"
     guidetolerance="10"
     inkscape:pageopacity="0"
     inkscape:pageshadow="2"
     inkscape:window-width="1918"
     inkscape:window-height="1776"
     id="namedview6"
     showgrid="false"
     scale-x="1"
     inkscape:zoom="75.52"
     inkscape:cx="9.236256"
     inkscape:cy="7.9297962"
     inkscape:window-x="784"
     inkscape:window-y="54"
     inkscape:window-maximized="0"
     inkscape:current-layer="svg4" />
  <metadata
     id="metadata10">
    <rdf:RDF>
      <cc:Work
         rdf:about="">
        <dc:format>image/svg+xml</dc:format>
        <dc:type
           rdf:resource="http://purl.org/dc/dcmitype/StillImage" />
        <dc:title />
      </cc:Work>
    </rdf:RDF>
  </metadata>
  <defs
     id="defs8" />
  <path
     style="clip-rule:evenodd;fill:#000000;fill-rule:evenodd;stroke-width:1.79826808"
     id="path2"
     d="M 24.286246,2.5238495 C 26.393097,0.41703357 28.3036,1.0526244 29.774699,2.4569372 l 0.308595,0.3085289 c 1.571621,1.5715846 1.738883,3.3482776 -0.367965,5.4550732 l -3.124132,3.1241527 -17.71019,17.71029 c -0.230484,0.230367 -0.5192366,0.39382 -0.8354223,0.472948 l -3.8479558,0.995446 c -0.6128135,0.153214 -2.8200127,0.639346 -2.8200127,0.639346 0,0 0.4966068,-2.204717 0.6392892,-2.820103 L 2.9788943,24.193607 C 3.0579389,23.877478 3.2214447,23.58867 3.451891,23.358132 L 21.265518,5.5445795 Z m 3.881977,1.539591 c -0.702222,-0.7022596 -1.840886,-0.7022596 -2.543108,0 l -1.773274,1.7733083 2.797028,2.9063424 1.827938,-1.8279753 c 0.702226,-0.7022596 0.702226,-1.8408686 0,-2.5431465 z M 25.342909,10.048993 22.545883,7.1426501 5.1430027,24.545602 4.1924392,28.347864 7.9946597,27.397295 Z"
     inkscape:connector-curvature="0"
     sodipodi:nodetypes="ccccccccccccccccccccccccccc" />
  <path
     style="fill:#ffb380;stroke:none;stroke-width:0.03745269"
     d="m 4.2344049,28.258927 c 0.011515,-0.03808 0.2245868,-0.886645 0.4734925,-1.885695 l 0.452556,-1.816456 8.6912826,-8.692949 8.691282,-8.6929489 1.372491,1.4221173 c 0.754871,0.7821645 1.376709,1.4328086 1.381863,1.4458766 0.0052,0.01307 -3.888054,3.920433 -8.651572,8.683034 l -8.6609418,8.659275 -1.8164554,0.452556 c -0.9990505,0.248906 -1.8476133,0.461977 -1.8856951,0.473492 -0.053976,0.01632 -0.064624,0.0057 -0.048303,-0.0483 z"
     id="path816"
     inkscape:connector-curvature="0" />
  <path
     style="fill:#a0a0a0;stroke:none;stroke-width:0.03745269"
     d="M 25.252759,7.2649809 23.87718,5.8343997 24.863486,4.8536413 c 0.707555,-0.7035758 1.03923,-1.0072722 1.173569,-1.0745723 0.622033,-0.3116213 1.285888,-0.2826911 1.837883,0.080093 0.267137,0.1755691 0.67687,0.5900658 0.837945,0.8476884 0.34237,0.5475851 0.35028,1.2680292 0.02023,1.843204 -0.09095,0.158494 -2.018341,2.1455075 -2.081133,2.1455075 -0.01301,0 -0.642658,-0.6437616 -1.399226,-1.4305811 z"
     id="path818"
     inkscape:connector-curvature="0" />
</svg>
