<?xml version="1.0" encoding="UTF-8" standalone="no"?>
<svg
   xmlns:dc="http://purl.org/dc/elements/1.1/"
   xmlns:cc="http://creativecommons.org/ns#"
   xmlns:rdf="http://www.w3.org/1999/02/22-rdf-syntax-ns#"
   xmlns:svg="http://www.w3.org/2000/svg"
   xmlns="http://www.w3.org/2000/svg"
   xmlns:sodipodi="http://sodipodi.sourceforge.net/DTD/sodipodi-0.dtd"
   xmlns:inkscape="http://www.inkscape.org/namespaces/inkscape"
   id="svg4"
   version="1.1"
   viewBox="0 0 32 32"
   height="32"
   width="32"
   sodipodi:docname="cur_draw.svg"
   inkscape:export-filename="D:\home\projects\00.docs\231018_symsim\v1\images\ui\cur_draw.png"
   inkscape:export-xdpi="5.8305197"
   inkscape:export-ydpi="5.8305197"
   style="fill:none"
   inkscape:version="0.92.3 (2405546, 2018-03-11)">
  <sodipodi:namedview
     pagecolor="#ffffff"
     bordercolor="#666666"
     borderopacity="1"
     objecttolerance="10"
     gridtolerance="10"
     guidetolerance="10"
     inkscape:pageopacity="0"
     inkscape:pageshadow="2"
     inkscape:window-width="1060"
     inkscape:window-height="721"
     id="namedview6"
     showgrid="false"
     scale-x="1"
     inkscape:zoom="9.44"
     inkscape:cx="20.284717"
     inkscape:cy="15.323884"
     inkscape:window-x="784"
     inkscape:window-y="54"
     inkscape:window-maximized="0"
     inkscape:current-layer="svg4" />
  <metadata
     id="metadata10">
    <rdf:RDF>
      <cc:Work
         rdf:about="">
        <dc:format>image/svg+xml</dc:format>
        <dc:type
           rdf:resource="http://purl.org/dc/dcmitype/StillImage" />
        <dc:title></dc:title>
      </cc:Work>
    </rdf:RDF>
  </metadata>
  <defs
     id="defs8" />
  <path
     style="clip-rule:evenodd;fill:#000000;fill-rule:evenodd;stroke-width:1.79826808"
     id="path2"
     d="M 24.286246,2.5238495 C 26.393097,0.41703357 28.3036,1.0526244 29.774699,2.4569372 l 0.308595,0.3085289 c 1.571621,1.5715846 1.738883,3.3482776 -0.367965,5.4550732 L 26.591197,11.344692 8.881007,29.054982 C 8.650523,29.285349 8.3617704,29.448802 8.0455847,29.52793 L 4.1976289,30.523376 C 3.5848154,30.67659 2.9365567,30.496945 2.4899043,30.050434 2.0432506,29.603747 1.874223,28.958005 2.0169054,28.342619 L 2.9788943,24.193607 C 3.0579389,23.877478 3.2214447,23.58867 3.451891,23.358132 L 21.265518,5.5445795 Z m 3.881977,1.539591 c -0.702222,-0.7022596 -1.840886,-0.7022596 -2.543108,0 l -1.773274,1.7733083 2.797028,2.9063424 1.827938,-1.8279753 c 0.702226,-0.7022596 0.702226,-1.8408686 0,-2.5431465 z M 25.342909,10.048993 22.545883,7.1426501 5.1430027,24.545602 4.1924392,28.347864 7.9946597,27.397295 Z"
     inkscape:connector-curvature="0" />
</svg>
