<?xml version="1.0" encoding="UTF-8" standalone="no"?>
<svg
   xmlns:dc="http://purl.org/dc/elements/1.1/"
   xmlns:cc="http://creativecommons.org/ns#"
   xmlns:rdf="http://www.w3.org/1999/02/22-rdf-syntax-ns#"
   xmlns:svg="http://www.w3.org/2000/svg"
   xmlns="http://www.w3.org/2000/svg"
   xmlns:sodipodi="http://sodipodi.sourceforge.net/DTD/sodipodi-0.dtd"
   xmlns:inkscape="http://www.inkscape.org/namespaces/inkscape"
   width="32"
   height="32"
   viewBox="0 0 32 32"
   version="1.1"
   preserveAspectRatio="xMidYMid meet"
   id="svg10"
   sodipodi:docname="cur_pick.svg"
   inkscape:version="0.92.3 (2405546, 2018-03-11)"
   style="fill:#000000">
  <metadata
     id="metadata10">
    <rdf:RDF>
      <cc:Work
         rdf:about="">
        <dc:format>image/svg+xml</dc:format>
        <dc:type
           rdf:resource="http://purl.org/dc/dcmitype/StillImage" />
        <dc:title></dc:title>
      </cc:Work>
    </rdf:RDF>
  </metadata>
  <defs
     id="defs8" />
  <sodipodi:namedview
     pagecolor="#ffffff"
     bordercolor="#666666"
     borderopacity="1"
     objecttolerance="10"
     gridtolerance="10"
     guidetolerance="10"
     inkscape:pageopacity="0"
     inkscape:pageshadow="2"
     inkscape:window-width="1172"
     inkscape:window-height="977"
     id="namedview6"
     showgrid="false"
     inkscape:zoom="6.675088"
     inkscape:cx="22.747802"
     inkscape:cy="37.720998"
     inkscape:window-x="485"
     inkscape:window-y="508"
     inkscape:window-maximized="0"
     inkscape:current-layer="svg10" />
  <g
     id="g820"
     transform="matrix(1.220695,0,0,1.220695,-5.6204284,36.163644)">
    <path
       inkscape:connector-curvature="0"
       d="m 29.313559,-22.556186 a 3.8239831,3.8239831 0 0 0 0.07542,-5.407882 3.8164407,3.8164407 0 0 0 -5.355085,0.09051 l -3.937114,3.884322 a 1.6065254,1.6065254 0 0 1 -2.262712,0 l -0.505339,-0.505339 -1.04839,1.086101 8.568136,8.568136 1.071017,-1.071017 -0.505339,-0.505339 a 1.6065254,1.6065254 0 0 1 0,-2.262712 z m -4.947796,2.828389 a 3.0697458,3.0697458 0 0 0 -0.814577,1.448136 l -3.831525,-3.831525 a 3.0697458,3.0697458 0 0 0 1.448136,-0.814577 l 3.891864,-3.899406 a 2.3305932,2.3305932 0 0 1 3.280932,-0.07542 2.3305932,2.3305932 0 0 1 -0.07542,3.280932 z"
       id="path2"
       style="stroke-width:0.75423729" />
    <path
       inkscape:connector-curvature="0"
       d="M 9.929661,-6.370254 A 1.5093136,1.5093136 0 1 1 7.7951695,-8.504746 L 18.437458,-19.147034 17.366441,-20.210508 6.7241525,-9.56822 A 3.0169492,3.0169492 0 0 0 6.2112712,-5.947881 L 5.095,-4.83161 a 0.75423729,0.75423729 0 0 0 0,1.093644 0.75423729,0.75423729 0 0 0 1.0710169,0 l 1.0785594,-1.086102 a 2.9641525,2.9641525 0 0 0 1.5763559,0.452543 3.0622034,3.0622034 0 0 0 2.1722038,-0.905085 l 10.642288,-10.672458 -1.063475,-1.063474 z"
       id="path4"
       style="stroke-width:0.75423729" />
    <rect
       height="27.152542"
       width="27.152542"
       y="-30.136271"
       x="4.4237289"
       id="rect6"
       style="fill-opacity:0;stroke-width:0.75423729" />
  </g>
</svg>
